REM DIRINDEX 1\2,1\3,1\4
REM DIRNAME folder01,folder02,folder03,folder04
TITLE ""
FILE "026 026_Lesson 6_TOEFL_3900.mp3" MP3
  TRACK 01 AUDIO
    TITLE "4:cjc151_1107"
    INDEX 01 00:00:00
  TRACK 02 AUDIO
    TITLE "0:"
    INDEX 01 00:01:52
  TRACK 03 AUDIO
    TITLE "2:cjc151_1108"
    INDEX 01 00:02:32
  TRACK 04 AUDIO
    TITLE "0:"
    INDEX 01 00:03:68
  TRACK 05 AUDIO
    TITLE "3:cjc151_1109"
    INDEX 01 00:05:48
  TRACK 06 AUDIO
    TITLE "0:"
    INDEX 01 00:10:00
  TRACK 07 AUDIO
    TITLE "2:cjc151_1110"
    INDEX 01 00:11:54
  TRACK 08 AUDIO
    TITLE "0:"
    INDEX 01 00:12:61
  TRACK 09 AUDIO
    TITLE "3:cjc151_1111"
    INDEX 01 00:14:43
  TRACK 10 AUDIO
    TITLE "0:"
    INDEX 01 00:18:13
  TRACK 11 AUDIO
    TITLE "2:cjc151_1112"
    INDEX 01 00:19:69
  TRACK 12 AUDIO
    TITLE "0:"
    INDEX 01 00:21:13
  TRACK 13 AUDIO
    TITLE "3:cjc151_1113"
    INDEX 01 00:22:70
  TRACK 14 AUDIO
    TITLE "0:"
    INDEX 01 00:27:06
  TRACK 15 AUDIO
    TITLE "2:cjc151_1114"
    INDEX 01 00:28:66
  TRACK 16 AUDIO
    TITLE "0:"
    INDEX 01 00:30:05
  TRACK 17 AUDIO
    TITLE "3:cjc151_1115"
    INDEX 01 00:31:59
  TRACK 18 AUDIO
    TITLE "0:"
    INDEX 01 00:35:14
  TRACK 19 AUDIO
    TITLE "2:cjc151_1116"
    INDEX 01 00:36:66
  TRACK 20 AUDIO
    TITLE "0:"
    INDEX 01 00:38:06
  TRACK 21 AUDIO
    TITLE "3:cjc151_1117"
    INDEX 01 00:39:58
  TRACK 22 AUDIO
    TITLE "0:"
    INDEX 01 00:44:16
  TRACK 23 AUDIO
    TITLE "2:cjc151_1118"
    INDEX 01 00:45:65
  TRACK 24 AUDIO
    TITLE "0:"
    INDEX 01 00:48:69
  TRACK 25 AUDIO
    TITLE "3:cjc151_1119"
    INDEX 01 00:50:48
  TRACK 26 AUDIO
    TITLE "0:"
    INDEX 01 00:55:44
  TRACK 27 AUDIO
    TITLE "2:cjc151_1120"
    INDEX 01 00:57:21
  TRACK 28 AUDIO
    TITLE "0:"
    INDEX 01 00:58:34
  TRACK 29 AUDIO
    TITLE "3:cjc151_1121"
    INDEX 01 01:00:12
  TRACK 30 AUDIO
    TITLE "0:"
    INDEX 01 01:03:16
  TRACK 31 AUDIO
    TITLE "2:cjc151_1122"
    INDEX 01 01:04:72
  TRACK 32 AUDIO
    TITLE "0:"
    INDEX 01 01:05:68
  TRACK 33 AUDIO
    TITLE "3:cjc151_1123"
    INDEX 01 01:07:49
  TRACK 34 AUDIO
    TITLE "0:"
    INDEX 01 01:10:31
  TRACK 35 AUDIO
    TITLE "2:cjc151_1124"
    INDEX 01 01:12:15
  TRACK 36 AUDIO
    TITLE "0:"
    INDEX 01 01:13:12
  TRACK 37 AUDIO
    TITLE "3:cjc151_1125"
    INDEX 01 01:14:66
  TRACK 38 AUDIO
    TITLE "0:"
    INDEX 01 01:18:43
  TRACK 39 AUDIO
    TITLE "2:cjc151_1126"
    INDEX 01 01:20:24
  TRACK 40 AUDIO
    TITLE "0:"
    INDEX 01 01:21:14
  TRACK 41 AUDIO
    TITLE "3:cjc151_1127"
    INDEX 01 01:22:66
  TRACK 42 AUDIO
    TITLE "0:"
    INDEX 01 01:26:07
  TRACK 43 AUDIO
    TITLE "2:cjc151_1128"
    INDEX 01 01:27:61
  TRACK 44 AUDIO
    TITLE "0:"
    INDEX 01 01:28:65
  TRACK 45 AUDIO
    TITLE "3:cjc151_1129"
    INDEX 01 01:30:46
  TRACK 46 AUDIO
    TITLE "0:"
    INDEX 01 01:34:36
  TRACK 47 AUDIO
    TITLE "2:cjc151_1130"
    INDEX 01 01:36:17
  TRACK 48 AUDIO
    TITLE "0:"
    INDEX 01 01:37:32
  TRACK 49 AUDIO
    TITLE "3:cjc151_1131"
    INDEX 01 01:39:14
  TRACK 50 AUDIO
    TITLE "0:"
    INDEX 01 01:42:71
  TRACK 51 AUDIO
    TITLE "2:cjc151_1132"
    INDEX 01 01:44:50
  TRACK 52 AUDIO
    TITLE "0:"
    INDEX 01 01:45:71
  TRACK 53 AUDIO
    TITLE "3:cjc151_1133"
    INDEX 01 01:47:48
  TRACK 54 AUDIO
    TITLE "0:"
    INDEX 01 01:51:11
  TRACK 55 AUDIO
    TITLE "2:cjc151_1134"
    INDEX 01 01:52:65
  TRACK 56 AUDIO
    TITLE "0:"
    INDEX 01 01:53:70
  TRACK 57 AUDIO
    TITLE "3:cjc151_1135"
    INDEX 01 01:55:52
  TRACK 58 AUDIO
    TITLE "0:"
    INDEX 01 01:59:69
  TRACK 59 AUDIO
    TITLE "2:cjc151_1136"
    INDEX 01 02:01:50
  TRACK 60 AUDIO
    TITLE "0:"
    INDEX 01 02:02:67
  TRACK 61 AUDIO
    TITLE "3:cjc151_1137"
    INDEX 01 02:04:47
  TRACK 62 AUDIO
    TITLE "0:"
    INDEX 01 02:08:41
  TRACK 63 AUDIO
    TITLE "2:cjc151_1138"
    INDEX 01 02:10:24
  TRACK 64 AUDIO
    TITLE "0:"
    INDEX 01 02:11:41
  TRACK 65 AUDIO
    TITLE "3:cjc151_1139"
    INDEX 01 02:13:18
  TRACK 66 AUDIO
    TITLE "0:"
    INDEX 01 02:17:16
  TRACK 67 AUDIO
    TITLE "2:cjc151_1140"
    INDEX 01 02:19:07
  TRACK 68 AUDIO
    TITLE "0:"
    INDEX 01 02:20:18
  TRACK 69 AUDIO
    TITLE "3:cjc151_1141"
    INDEX 01 02:22:00
  TRACK 70 AUDIO
    TITLE "0:"
    INDEX 01 02:26:11
  TRACK 71 AUDIO
    TITLE "2:cjc151_1142"
    INDEX 01 02:27:67
  TRACK 72 AUDIO
    TITLE "0:"
    INDEX 01 02:30:48
  TRACK 73 AUDIO
    TITLE "3:cjc151_1143"
    INDEX 01 02:32:27
  TRACK 74 AUDIO
    TITLE "0:"
    INDEX 01 02:35:65
  TRACK 75 AUDIO
    TITLE "2:cjc151_1144"
    INDEX 01 02:37:46
  TRACK 76 AUDIO
    TITLE "0:"
    INDEX 01 02:38:46
  TRACK 77 AUDIO
    TITLE "3:cjc151_1145"
    INDEX 01 02:40:25
  TRACK 78 AUDIO
    TITLE "0:"
    INDEX 01 02:44:09
  TRACK 79 AUDIO
    TITLE "2:cjc151_1146"
    INDEX 01 02:45:61
  TRACK 80 AUDIO
    TITLE "0:"
    INDEX 01 02:47:00
  TRACK 81 AUDIO
    TITLE "3:cjc151_1147"
    INDEX 01 02:48:52
  TRACK 82 AUDIO
    TITLE "0:"
    INDEX 01 02:52:73
  TRACK 83 AUDIO
    TITLE "2:cjc151_1148"
    INDEX 01 02:54:53
  TRACK 84 AUDIO
    TITLE "0:"
    INDEX 01 02:55:62
  TRACK 85 AUDIO
    TITLE "3:cjc151_1149"
    INDEX 01 02:57:41
  TRACK 86 AUDIO
    TITLE "0:"
    INDEX 01 03:01:62
  TRACK 87 AUDIO
    TITLE "2:cjc151_1150"
    INDEX 01 03:03:42
  TRACK 88 AUDIO
    TITLE "0:"
    INDEX 01 03:04:37
  TRACK 89 AUDIO
    TITLE "3:cjc151_1151"
    INDEX 01 03:06:20
  TRACK 90 AUDIO
    TITLE "0:"
    INDEX 01 03:10:36
